<svg width="590" height="701" viewBox="0 0 590 701" fill="none" xmlns="http://www.w3.org/2000/svg">
<path d="M369.394 180.66C392.146 173.246 414.928 167.558 438.83 169.262V169.263C495.602 173.779 538.435 195.913 567.023 235.477C447.495 309.85 475.947 468.908 586.156 515.658C564.229 572.863 535.89 629.082 489.513 670.741L489.493 670.722C470.932 688.733 451.679 696.199 432.262 697.136C412.739 698.078 392.808 692.429 372.973 683.755L372.956 683.748L372.938 683.74L370.919 682.899C328.563 665.5 289.357 665.026 244.578 683.735L244.547 683.749C216.767 695.722 195.966 699.779 178.17 697.308C160.457 694.848 145.261 685.853 128.791 670.721C34.4685 573.363 -5.58545 450.714 4.52441 351.295C9.57891 301.59 27.1514 257.815 56.5898 225.83C85.9627 193.917 127.315 173.553 180.381 170.833C206.112 172.192 227.993 179.254 247.427 186.368C266.689 193.419 284.066 200.764 299.967 201.973L300.384 202.004L300.793 201.921C323.966 197.203 346.808 188.02 369.394 180.66ZM439.105 3.27539C443.426 51.1287 421.494 92.9439 391.612 121.917C376.374 136.692 359.141 148.049 342.432 155.105C326.676 161.759 311.59 164.505 299.158 162.896C294.938 79.9824 361.645 11.5381 439.105 3.27539Z" fill="white" stroke="black" stroke-width="6"/>
</svg>
