<svg width="18" height="18" viewBox="0 0 18 18" fill="none" xmlns="http://www.w3.org/2000/svg">
<g opacity="0.6" clip-path="url(#clip0_4675_198)">
<path d="M9 18C13.9706 18 18 13.9706 18 9C18 4.02944 13.9706 0 9 0C4.02944 0 0 4.02944 0 9C0 13.9706 4.02944 18 9 18Z" fill="#FFD983"/>
<path d="M5.25 6C6.2165 6 7 5.2165 7 4.25C7 3.2835 6.2165 2.5 5.25 2.5C4.2835 2.5 3.5 3.2835 3.5 4.25C3.5 5.2165 4.2835 6 5.25 6Z" fill="#FFCC4D"/>
<path d="M10 10C10.8284 10 11.5 9.32843 11.5 8.5C11.5 7.67157 10.8284 7 10 7C9.17157 7 8.5 7.67157 8.5 8.5C8.5 9.32843 9.17157 10 10 10Z" fill="#FFCC4D"/>
<path d="M12.25 16C13.2165 16 14 15.2165 14 14.25C14 13.2835 13.2165 12.5 12.25 12.5C11.2835 12.5 10.5 13.2835 10.5 14.25C10.5 15.2165 11.2835 16 12.25 16Z" fill="#FFCC4D"/>
<path d="M11 3.5C11.5523 3.5 12 3.05228 12 2.5C12 1.94772 11.5523 1.5 11 1.5C10.4477 1.5 10 1.94772 10 2.5C10 3.05228 10.4477 3.5 11 3.5Z" fill="#FFCC4D"/>
<path d="M1.5 9.5C1.77614 9.5 2 9.27614 2 9C2 8.72386 1.77614 8.5 1.5 8.5C1.22386 8.5 1 8.72386 1 9C1 9.27614 1.22386 9.5 1.5 9.5Z" fill="#FFCC4D"/>
<path d="M15 5C15.2761 5 15.5 4.77614 15.5 4.5C15.5 4.22386 15.2761 4 15 4C14.7239 4 14.5 4.22386 14.5 4.5C14.5 4.77614 14.7239 5 15 5Z" fill="#FFCC4D"/>
<path d="M7.5 16C7.77614 16 8 15.7761 8 15.5C8 15.2239 7.77614 15 7.5 15C7.22386 15 7 15.2239 7 15.5C7 15.7761 7.22386 16 7.5 16Z" fill="#FFCC4D"/>
<path d="M16 10.5C16.5523 10.5 17 10.0523 17 9.5C17 8.94772 16.5523 8.5 16 8.5C15.4477 8.5 15 8.94772 15 9.5C15 10.0523 15.4477 10.5 16 10.5Z" fill="#FFCC4D"/>
<path d="M5 12.5C5.55228 12.5 6 12.0523 6 11.5C6 10.9477 5.55228 10.5 5 10.5C4.44772 10.5 4 10.9477 4 11.5C4 12.0523 4.44772 12.5 5 12.5Z" fill="#FFCC4D"/>
<ellipse cx="5.5" cy="7.5" rx="1.5" ry="2.5" fill="black"/>
<ellipse cx="12.5" cy="7.5" rx="1.5" ry="2.5" fill="black"/>
</g>
<defs>
<clipPath id="clip0_4675_198">
<rect width="18" height="18" fill="white"/>
</clipPath>
</defs>
</svg>
